<svg xmlns="http://www.w3.org/2000/svg" viewBox="0 0 1358.02 1277.73"><title>泡</title><g id="图层_2" data-name="图层 2"><g id="图层_5_复制" data-name="图层 5_复制"><path d="M1326.11,612.64q67-203.77-6.68-349.66T1050.8,53Q917.3,9,787.53,24.78T537.85,100.33a950.09,950.09,0,0,0-123.89,74,72.19,72.19,0,0,1-78.11,3.38L41.72.72a5,5,0,0,0-6.85,6.83L207,295.23a72,72,0,0,1-5.9,81.14q-30.47,38.16-57.39,79Q69.84,567.38,31.72,683.3q-66.45,202,6.35,347.63t267.8,209.73q131.75,43.33,262.37,27.9t250.55-75.26q41.41-20.67,80.5-45.12a175.89,175.89,0,0,1,180.34-3.86l224.85,132.73a5,5,0,0,0,6.83-6.8l-126.38-215.64a175.58,175.58,0,0,1,10-188.34q9.51-13.31,18.63-26.88Q1288,728.57,1326.11,612.64Zm-179.87-86.42a1165.11,1165.11,0,0,1-111.61,241.69q-70,115.15-157.05,208.21T695.77,1132.39q-94.77,63.24-188.85,85.83t-174.85-4q-107.17-35.25-142.73-155t21.07-291.87A1163.73,1163.73,0,0,1,322,525.72l.36-.61a72.08,72.08,0,0,1,95.93-25.79l250,140.86a5,5,0,0,0,6.73-6.87L513,358.23a72.06,72.06,0,0,1,12.72-87.84q65.49-62.62,135.16-109.14Q755.68,98,849.71,75.4t174.87,4q107.18,35.25,142.72,155T1146.24,526.22Z"/></g></g></svg>